<svg xmlns="http://www.w3.org/2000/svg" viewBox="81.443 90.45 294.659 66.375"><path fill="#0A0B09" d="M367.713 139.602c-4.633 0-8.388 3.79-8.388 8.464 0 4.675 3.755 8.465 8.388 8.465s8.39-3.79 8.39-8.465-3.757-8.464-8.39-8.464zm-27.599-6.545c0-6.4-5.421-11.587-12.11-11.587s-12.11 5.187-12.11 11.587c0 6.401 5.422 11.59 12.11 11.59s12.11-5.189 12.11-11.59zm.045-22.522h13.365v45.043h-13.365V152.7a23.285 23.285 0 0 1-13.249 4.125c-13.008 0-23.554-10.64-23.554-23.768s10.546-23.767 23.554-23.767a23.28 23.28 0 0 1 13.25 4.126v-2.881zm-106.955 5.867v-5.866h-13.683v45.042h13.714v-21.03c0-7.095 7.621-10.908 12.91-10.908.053 0 .104.005.158.006v-13.107c-5.427 0-10.42 2.345-13.099 5.864zm-34.085 16.656c0-6.4-5.422-11.588-12.11-11.588s-12.11 5.187-12.11 11.588c0 6.4 5.422 11.59 12.11 11.59s12.11-5.19 12.11-11.59zm.044-22.523h13.366v45.044h-13.366v-2.88a23.284 23.284 0 0 1-13.248 4.127c-13.009 0-23.555-10.642-23.555-23.769s10.546-23.767 23.555-23.767c4.916 0 9.473 1.527 13.248 4.127v-2.882zm80.445-1.211c-5.339 0-10.392 1.672-13.77 6.287v-5.073H252.53v45.04H266v-23.67c0-6.85 4.553-10.203 10.034-10.203 5.873 0 9.25 3.54 9.25 10.11v23.764h13.35v-28.644c0-10.482-8.26-17.61-19.027-17.61zm-136.715 46.255h13.988V90.463h-13.988v65.116zm-61.45.018h14.813V90.45H81.443v65.147zm51.81-65.147c0 14.104-5.448 27.224-15.153 36.976l20.475 28.173H120.28l-22.252-30.618 5.743-4.34c9.523-7.199 14.986-18.202 14.986-30.19h14.495z"/></svg>